<mxfile host="app.diagrams.net" modified="2023-10-24T04:18:46.470Z" agent="Mozilla/5.0 (Windows NT 10.0; Win64; x64) AppleWebKit/537.36 (KHTML, like Gecko) Chrome/115.0.0.0 Safari/537.36" version="22.0.6" etag="TsEkRoE5kHZ5AyU1SIZ7" type="github">
  <diagram name="Page-1" id="g9H4eLqSMFC9hu79CJ8q">
    <mxGraphModel>
      <root>
        <mxCell id="0" />
        <mxCell id="1" parent="0" />
      </root>
    </mxGraphModel>
  </diagram>
</mxfile>
